<svg xlink="http://www.w3.org/1999/xlink" viewBox="0 0 5000 5000" xmlns="http://www.w3.org/2000/svg" style="transform: scale(1);"><defs><filter id="goo"><feGaussianBlur in="SourceGraphic" stdDeviation="0" result="blur"></feGaussianBlur><feColorMatrix in="blur" type="matrix" values="1 0 0 0 0 0 1 0 0 0 0 0 1 0 0 0 0 0 19 -9" result="good"></feColorMatrix><feComposite in="SourceGraphic" in2="goo" operator="atop"></feComposite></filter><path d="M244,220Q262,205 270,226L275,268C261,282 239,282 224,267C233,249 237,239 244,220z" id="P0"></path><path d="M235,261L235,240L260,235L260,265L235,261z" id="P1"></path><path d="M240,271Q216,256 233,234Q233,220 243,228C257,239 263,248 268,265C255,261 250,262 240,271z" id="P2"></path><path d="M250,264L236,248L252,236L261,241L250,264z" id="P3"></path><path d="M268,261L229,251C239,247 241,244 238,233C252,238 260,244 270,255Q279,263 268,261z" id="P4"></path><path d="M260,236L265,243L254,266L234,255L260,236z" id="P5"></path></defs><rect id="RECT" width="5000" height="5000" fill="#111"></rect><g id="group" fill="#FFF" filter=""><use x="325" y="118" href="#P5"></use><use x="214" y="1276" href="#P5"></use><use x="261" y="2103" href="#P3"></use><use x="114" y="2940" href="#P1"></use><use x="363" y="3683" href="#P5"></use><use x="-98" y="4786" href="#P0"></use><use x="410" y="4967" href="#P5"></use><use x="640" y="-428" href="#P2"></use><use x="678" y="833" href="#P2"></use><use x="1050" y="2231" href="#P4"></use><use x="1633" y="2450" href="#P1"></use><use x="1428" y="3508" href="#P1"></use><use x="1458" y="4388" href="#P2"></use><use x="524" y="5312" href="#P4"></use><use x="2299" y="81" href="#P4"></use><use x="2394" y="1163" href="#P1"></use><use x="2274" y="2134" href="#P5"></use><use x="1719" y="2830" href="#P2"></use><use x="1986" y="3501" href="#P3"></use><use x="2498" y="3815" href="#P4"></use><use x="1743" y="5231" href="#P0"></use><use x="2709" y="134" href="#P1"></use><use x="3140" y="697" href="#P0"></use><use x="2597" y="2145" href="#P3"></use><use x="3216" y="2837" href="#P1"></use><use x="2824" y="3421" href="#P0"></use><use x="3348" y="4258" href="#P4"></use><use x="3435" y="5788" href="#P1"></use><use x="3846" y="678" href="#P1"></use><use x="4020" y="1099" href="#P2"></use><use x="3828" y="1944" href="#P0"></use><use x="3876" y="2500" href="#P2"></use><use x="3652" y="3051" href="#P3"></use><use x="3820" y="4588" href="#P4"></use><use x="4157" y="5495" href="#P3"></use><use x="4912" y="39" href="#P1"></use><use x="5034" y="1401" href="#P2"></use><use x="4832" y="1592" href="#P4"></use><use x="4992" y="2606" href="#P3"></use><use x="4465" y="3525" href="#P1"></use><use x="4192" y="4032" href="#P5"></use><use x="4160" y="5050" href="#P0"></use></g></svg>